<svg width="50" height="50" viewBox="0 0 50 50" fill="none" xmlns="http://www.w3.org/2000/svg">
<path d="M47.498 7.49603H2.50199C1.08221 7.49603 0 8.58817 0 9.99802V26.668C0 28.0878 1.08221 29.17 2.50199 29.17H47.498C48.9178 29.17 50 28.0878 50 26.668V9.99802C50 8.58817 48.9178 7.49603 47.498 7.49603ZM48.332 26.668C48.332 27.1644 47.9944 27.502 47.498 27.502H2.50199C2.00556 27.502 1.66799 27.1644 1.66799 26.668V9.99802C1.66799 9.50159 2.08499 9.16402 2.50199 9.16402H47.498C47.9944 9.16402 48.332 9.50159 48.332 9.99802V26.668Z" fill="#01625C"/>
<path d="M21.664 15.002H28.326C28.8225 15.002 29.16 14.6644 29.16 14.168C29.16 13.6716 28.8225 13.334 28.326 13.334H21.664C21.1676 13.334 20.83 13.6716 20.83 14.168C20.83 14.6644 21.1676 15.002 21.664 15.002Z" fill="#01625C"/>
<path d="M45.83 24.166H4.16996C3.67354 24.166 3.33597 24.5036 3.33597 25C3.33597 25.4964 3.67354 25.834 4.16996 25.834H45.8399C46.3364 25.834 46.6739 25.4964 46.6739 25C46.6739 24.5036 46.3364 24.166 45.83 24.166Z" fill="#01625C"/>
<path d="M45.83 20.83H4.16996C3.67354 20.83 3.33597 21.1676 3.33597 21.664C3.33597 22.1604 3.67354 22.498 4.16996 22.498H45.8399C46.3364 22.498 46.6739 22.1604 46.6739 21.664C46.6739 21.1676 46.3364 20.83 45.83 20.83Z" fill="#01625C"/>
<path d="M25.417 35.0874C24.583 34.6704 24.166 34.174 24.166 33.757C24.166 33.34 24.6624 32.8435 25.3376 32.3372C25.7546 32.1684 25.834 31.672 25.6751 31.255C25.5063 30.838 25.0099 30.6692 24.5929 30.9174C23.2625 31.672 22.5079 32.6648 22.5079 33.747C22.5079 34.8292 23.2625 35.832 24.5929 36.666C25.4269 37.083 25.8439 37.5794 25.8439 37.9964C25.8439 38.4134 25.3475 38.9099 24.5929 39.3269C24.1759 39.4957 24.0071 39.9921 24.2554 40.4091C24.4241 40.6573 24.6724 40.8261 25.0099 40.8261C25.1787 40.8261 25.2581 40.8261 25.4269 40.7466C26.7573 39.9921 27.5119 38.9992 27.5119 37.917C27.5119 36.8348 26.7474 35.7526 25.417 35.0874Z" fill="#01625C"/>
<path d="M16.253 36.7554C15.419 36.3384 15.002 35.8419 15.002 35.4249C15.002 35.0079 15.4984 34.5115 16.1736 34.0052C16.5906 33.8364 16.7593 33.3399 16.5111 32.923C16.3423 32.506 15.8459 32.3372 15.4289 32.5854C14.0985 33.34 13.3439 34.3328 13.3439 35.415C13.3439 36.4972 14.0985 37.5 15.4289 38.334C16.2629 38.751 16.6799 39.2474 16.6799 39.6644C16.6799 40.0814 16.1835 40.5778 15.4289 40.9948C15.0119 41.1636 14.8431 41.66 15.0914 42.077C15.2601 42.3253 15.5084 42.494 15.8459 42.494C16.0147 42.494 16.0941 42.494 16.2629 42.4146C17.5933 41.66 18.3479 40.6672 18.3479 39.585C18.3479 38.5028 17.5834 37.4206 16.253 36.7554Z" fill="#01625C"/>
<path d="M34.581 36.7554C33.747 36.3384 33.33 35.8419 33.33 35.4249C33.33 35.0079 33.8264 34.5115 34.5016 34.0052C34.9186 33.8364 34.998 33.3399 34.8391 32.923C34.6703 32.506 34.1739 32.3372 33.7569 32.5854C32.4265 33.34 31.6719 34.3328 31.6719 35.415C31.6719 36.4972 32.4265 37.5 33.7569 38.334C34.5909 38.751 35.0079 39.2474 35.0079 39.6644C35.0079 40.0814 34.5115 40.5778 33.7569 40.9948C33.3399 41.1636 33.1711 41.66 33.4194 42.077C33.5881 42.3253 33.8364 42.494 34.1739 42.494C34.3427 42.494 34.4221 42.494 34.5909 42.4146C35.9213 41.66 36.6759 40.6672 36.6759 39.585C36.6759 38.5028 35.9213 37.4206 34.581 36.7554Z" fill="#01625C"/>
</svg>
