<svg width="50" height="50" viewBox="0 0 50 50" fill="none" xmlns="http://www.w3.org/2000/svg">
<path d="M48.4375 33.5938H47.6562V27.3438C47.6562 25.6152 46.2598 24.2188 44.5312 24.2188V10.9375C44.5312 9.20898 43.1348 7.8125 41.4062 7.8125H8.59375C6.86523 7.8125 5.46875 9.20898 5.46875 10.9375V24.2188C3.74023 24.2188 2.34375 25.6152 2.34375 27.3438V33.5938H1.5625C1.13281 33.5938 0.78125 33.9453 0.78125 34.375V37.5C0.78125 37.9297 1.13281 38.2812 1.5625 38.2812H2.34375V41.4062C2.34375 41.8359 2.69531 42.1875 3.125 42.1875H5.46875C5.83984 42.1875 6.16211 41.9238 6.23047 41.5625L6.88477 38.2812H43.1055L43.7598 41.5625C43.8281 41.9238 44.1504 42.1875 44.5215 42.1875H46.8652C47.2949 42.1875 47.6465 41.8359 47.6465 41.4062V38.2812H48.4277C48.8574 38.2812 49.209 37.9297 49.209 37.5V34.375C49.2188 33.9453 48.8672 33.5938 48.4375 33.5938ZM7.03125 10.9375C7.03125 10.0781 7.73438 9.375 8.59375 9.375H41.4062C42.2656 9.375 42.9688 10.0781 42.9688 10.9375V24.2188H41.4062V21.0938C41.4062 19.3652 40.0098 17.9688 38.2812 17.9688H28.9062C27.1777 17.9688 25.7812 19.3652 25.7812 21.0938V24.2188H24.2188V21.0938C24.2188 19.3652 22.8223 17.9688 21.0938 17.9688H11.7188C9.99023 17.9688 8.59375 19.3652 8.59375 21.0938V24.2188H7.03125V10.9375ZM39.8438 21.0938V24.2188H27.3438V21.0938C27.3438 20.2344 28.0469 19.5312 28.9062 19.5312H38.2812C39.1406 19.5312 39.8438 20.2344 39.8438 21.0938ZM22.6562 21.0938V24.2188H10.1562V21.0938C10.1562 20.2344 10.8594 19.5312 11.7188 19.5312H21.0938C21.9531 19.5312 22.6562 20.2344 22.6562 21.0938ZM3.90625 27.3438C3.90625 26.4844 4.60938 25.7812 5.46875 25.7812H44.5312C45.3906 25.7812 46.0938 26.4844 46.0938 27.3438V33.5938H3.90625V27.3438ZM4.82422 40.625H3.90625V38.2812H5.29297L4.82422 40.625ZM46.0938 40.625H45.1758L44.707 38.2812H46.0938V40.625ZM47.6562 36.7188H2.34375V35.1562H47.6562V36.7188Z" fill="#01625C"/>
</svg>
