<svg width="50" height="50" viewBox="0 0 50 50" fill="none" xmlns="http://www.w3.org/2000/svg">
<path d="M43.75 23.4375H42.1875V21.875C42.1875 21.0156 41.4844 20.3125 40.625 20.3125H3.125C2.26562 20.3125 1.5625 21.0156 1.5625 21.875V31.25C1.5625 40.7227 9.27734 48.4375 18.75 48.4375H25C31.6895 48.4375 37.4805 44.5898 40.3223 39.0039C40.4199 39.0234 40.5176 39.0625 40.625 39.0625C44.9316 39.0625 48.4375 35.5566 48.4375 31.25V28.125C48.4375 25.5371 46.3379 23.4375 43.75 23.4375ZM25 45.3125H18.75C10.9961 45.3125 4.6875 39.0039 4.6875 31.25V23.4375H39.0625V31.25C39.0625 39.0039 32.7539 45.3125 25 45.3125ZM45.3125 31.25C45.3125 33.5156 43.6914 35.4199 41.543 35.8398C41.9531 34.375 42.1875 32.8418 42.1875 31.25V26.5625H43.75C44.6094 26.5625 45.3125 27.2656 45.3125 28.125V31.25Z" fill="#01625C"/>
<path d="M10.9375 14.0625H15.625C16.4844 14.0625 17.1875 14.7656 17.1875 15.625V17.1875C17.1875 18.0469 17.8906 18.75 18.75 18.75C19.6094 18.75 20.3125 18.0469 20.3125 17.1875V15.625C20.3125 13.0371 18.2129 10.9375 15.625 10.9375H10.9375C10.0781 10.9375 9.375 10.2344 9.375 9.375C9.375 8.51562 10.0781 7.8125 10.9375 7.8125H28.125C30.7129 7.8125 32.8125 5.71289 32.8125 3.125C32.8125 2.26562 32.1094 1.5625 31.25 1.5625C30.3906 1.5625 29.6875 2.26562 29.6875 3.125C29.6875 3.98438 28.9844 4.6875 28.125 4.6875H10.9375C8.34961 4.6875 6.25 6.78711 6.25 9.375C6.25 11.9629 8.34961 14.0625 10.9375 14.0625Z" fill="#01625C"/>
<path d="M28.125 10.9375C25.5371 10.9375 23.4375 13.0371 23.4375 15.625V17.1875C23.4375 18.0469 24.1406 18.75 25 18.75C25.8594 18.75 26.5625 18.0469 26.5625 17.1875V15.625C26.5625 14.7656 27.2656 14.0625 28.125 14.0625H31.25C32.1094 14.0625 32.8125 13.3594 32.8125 12.5C32.8125 11.6406 32.1094 10.9375 31.25 10.9375H28.125Z" fill="#01625C"/>
</svg>
