<svg width="50" height="50" viewBox="0 0 50 50" fill="none" xmlns="http://www.w3.org/2000/svg">
<path d="M42.9569 1.91397V31.1899C42.9569 32.2445 42.0976 33.1039 41.0429 33.1039C39.9883 33.1039 39.129 32.2445 39.129 31.1899V1.92373C39.129 0.869099 39.9883 0.00976562 41.0429 0.00976562C42.0976 0.00976562 42.9569 0.859333 42.9569 1.91397Z" fill="#01625C"/>
<path d="M31.7953 26.1901H4.07207C3.01743 26.1901 2.1581 27.0495 2.1581 28.1041C2.1581 29.1587 3.01743 30.0181 4.07207 30.0181H4.65797L5.33177 33.3773L2.26551 36.4435C1.19135 37.5079 0.605438 38.9239 0.605438 40.4277C0.605438 42.7616 1.99209 44.8416 4.14042 45.74C4.85328 46.0427 5.60519 46.1794 6.34734 46.1794C6.85513 46.1794 7.35316 46.111 7.84141 45.9841L8.3492 48.5133C8.52497 49.4117 9.31595 50.0562 10.2339 50.0562H25.6433C26.5612 50.0562 27.3424 49.4117 27.5279 48.5133L28.1432 45.4177L31.2192 30.0278H31.8051C32.8597 30.0278 33.7191 29.1685 33.7191 28.1139C33.7093 27.0495 32.85 26.1901 31.7953 26.1901ZM5.61496 42.1952C4.9021 41.9023 4.44314 41.2089 4.44314 40.4277C4.44314 39.9492 4.62868 39.5 4.97046 39.1582L6.23016 37.8985L7.0895 42.1952C6.63053 42.3905 6.10322 42.4003 5.61496 42.1952ZM11.2885 43.6112L19.2764 35.6233C20.0283 34.8713 20.0283 33.6605 19.2764 32.9086C18.5245 32.1566 17.3136 32.1566 16.5617 32.9086L10.3804 39.0899L8.56403 30.0181H27.3034L24.0711 46.2184H11.8061L11.2885 43.6112Z" fill="#01625C"/>
<path d="M42.9569 29.5005V31.1899C42.9569 32.2445 42.0976 33.1039 41.0429 33.1039C43.3866 33.1039 45.2908 35.0081 45.2908 37.3517C45.2908 39.6563 44.8221 41.5507 43.9041 42.9862C42.4979 45.1638 40.0567 46.2282 36.424 46.2282H33.5433C35.301 44.3826 36.7951 41.5702 36.7951 37.3615C36.7951 35.0178 38.6993 33.1136 41.0429 33.1136C39.9883 33.1136 39.129 32.2543 39.129 31.1997V29.5103C35.594 30.3696 32.9672 33.5628 32.9672 37.3615C32.9672 40.7011 31.7465 43.1913 29.3443 44.7634C28.9439 45.0271 28.5338 45.2419 28.1432 45.4275C26.7272 46.0817 25.5261 46.238 25.4382 46.2477C24.4227 46.3454 23.661 47.2145 23.7098 48.2398C23.7586 49.2261 24.5496 50.0171 25.5261 50.0659C25.5652 50.0659 25.5945 50.0659 25.6335 50.0659H36.424C39.0216 50.0659 41.2773 49.5874 43.1327 48.65C44.7928 47.8102 46.1306 46.6091 47.1266 45.0662C48.4547 43.0057 49.1285 40.418 49.1285 37.3615C49.1187 33.5531 46.4919 30.3598 42.9569 29.5005Z" fill="#01625C"/>
<path d="M8.69098 23.866C7.86094 23.866 7.12856 23.3387 6.87466 22.5575C6.10322 20.2334 4.24784 18.378 1.92373 17.6066C1.14252 17.3429 0.615204 16.6105 0.615204 15.7903C0.615204 14.97 1.14252 14.2278 1.92373 13.9739C4.24784 13.2025 6.10322 11.3569 6.87466 9.03277C7.13832 8.25156 7.87071 7.72424 8.69098 7.72424C9.52102 7.72424 10.2534 8.25156 10.5073 9.03277C11.2787 11.3569 13.1341 13.2025 15.4582 13.9837C16.2394 14.2474 16.7668 14.9797 16.7668 15.8098C16.7668 16.6398 16.2297 17.3722 15.4485 17.6261C13.1244 18.3878 11.2787 20.2334 10.5073 22.5673C10.2534 23.3289 9.52102 23.866 8.69098 23.866ZM6.55241 15.7805C7.35316 16.3957 8.07578 17.1183 8.69098 17.9191C9.30619 17.1183 10.0288 16.3957 10.8295 15.7805C10.0288 15.1653 9.30619 14.4427 8.69098 13.6419C8.07578 14.4427 7.35316 15.1653 6.55241 15.7805Z" fill="#01625C"/>
<path d="M33.7093 15.7805C33.7093 16.8351 32.85 17.6945 31.7953 17.6945H30.6333V18.8565C30.6333 19.9111 29.7739 20.7705 28.7193 20.7705C27.6647 20.7705 26.8053 19.9111 26.8053 18.8565V17.6945H25.6433C24.5886 17.6945 23.7293 16.8351 23.7293 15.7805C23.7293 14.7259 24.5886 13.8665 25.6433 13.8665H26.8053V12.7045C26.8053 11.6498 27.6647 10.7905 28.7193 10.7905C29.7739 10.7905 30.6333 11.6498 30.6333 12.7045V13.8665H31.7953C32.85 13.8665 33.7093 14.7259 33.7093 15.7805Z" fill="#01625C"/>
<path d="M26.0143 4.99976C26.0143 6.05439 25.155 6.91372 24.1004 6.91372H22.9383V8.07578C22.9383 9.13042 22.079 9.98975 21.0244 9.98975C19.9697 9.98975 19.1104 9.13042 19.1104 8.07578V6.91372H17.9483C16.8937 6.91372 16.0344 6.05439 16.0344 4.99976C16.0344 3.94512 16.8937 3.08579 17.9483 3.08579H19.1104V1.92374C19.1104 0.869101 19.9697 0.00976753 21.0244 0.00976753C22.079 0.00976753 22.9383 0.869101 22.9383 1.92374V3.08579H24.1004C25.155 3.08579 26.0143 3.94512 26.0143 4.99976Z" fill="#01625C"/>
</svg>
