<svg width="50" height="50" viewBox="0 0 50 50" fill="none" xmlns="http://www.w3.org/2000/svg">
<path d="M37.334 10.6543C39.4141 10.6543 41.0938 8.96484 41.0938 6.89453C41.0938 4.82422 39.4141 3.125 37.334 3.125C35.2539 3.125 33.5742 4.81445 33.5742 6.88477C33.5742 8.96484 35.2539 10.6445 37.334 10.6543ZM37.334 4.6875C38.5449 4.6875 39.5312 5.67383 39.5312 6.88477C39.5312 8.0957 38.5449 9.08203 37.334 9.08203C36.123 9.08203 35.127 8.10547 35.127 6.88477C35.1367 5.67383 36.1133 4.6875 37.334 4.6875Z" fill="#01625C"/>
<path d="M40.0781 12.666H34.5898C33.3301 12.666 32.3047 13.6914 32.3047 14.9512V30.4492C32.3047 31.5332 32.6953 32.5684 33.4082 33.3789C33.8672 33.9062 34.1309 34.5801 34.1309 35.2832V46.0938C34.1309 46.5234 34.4824 46.875 34.9121 46.875C35.3418 46.875 35.6934 46.5234 35.6934 46.0938V35.2832C35.6934 34.1992 35.3027 33.1641 34.5898 32.3535C34.1309 31.8262 33.8672 31.1523 33.8672 30.4492V14.9512C33.8672 14.5508 34.1895 14.2285 34.5898 14.2285H40.0781C40.4785 14.2285 40.8008 14.5508 40.8008 14.9512V30.4492C40.8008 31.1523 40.5469 31.8262 40.0781 32.3535C39.3652 33.1641 38.9746 34.209 38.9746 35.2832V46.0938C38.9746 46.5234 39.3262 46.875 39.7559 46.875C40.1855 46.875 40.5371 46.5234 40.5371 46.0938V35.2832C40.5371 34.5801 40.791 33.9062 41.2598 33.3789C41.9727 32.5684 42.3633 31.5234 42.3633 30.4492V14.9512C42.3535 13.6914 41.3379 12.666 40.0781 12.666Z" fill="#01625C"/>
<path d="M15.5176 6.88477C15.5176 8.96484 17.207 10.6445 19.2773 10.6445C21.3477 10.6445 23.0469 8.96484 23.0469 6.88477C23.0469 4.80469 21.3672 3.125 19.2871 3.125C17.207 3.125 15.5273 4.81445 15.5176 6.88477ZM19.2871 4.6875C20.498 4.6875 21.4844 5.67383 21.4844 6.88477C21.4844 8.0957 20.498 9.08203 19.2871 9.08203C18.0762 9.08203 17.0801 8.10547 17.0801 6.88477C17.0898 5.67383 18.0664 4.6875 19.2871 4.6875Z" fill="#01625C"/>
<path d="M10.7715 46.875H31.7969C32.2266 46.875 32.5781 46.5234 32.5781 46.0938C32.5781 45.6641 32.2266 45.3125 31.7969 45.3125H10.7715C9.91211 45.3125 9.20898 44.6094 9.20898 43.75V25.8691C9.20898 25.0098 9.91211 24.3066 10.7715 24.3066H29.9707C30.4004 24.3066 30.752 23.9551 30.752 23.5254C30.752 23.0957 30.4004 22.7441 29.9707 22.7441H24.3164V14.9414C24.3164 13.6816 23.291 12.666 22.0313 12.6562H16.543C15.2832 12.6562 14.2676 13.6816 14.2578 14.9414V22.7344H10.7617C9.0332 22.7344 7.63672 24.1309 7.63672 25.8594V43.75C7.64648 45.4785 9.04297 46.875 10.7715 46.875ZM15.8203 14.9414C15.8203 14.541 16.1426 14.2188 16.543 14.2188H22.0313C22.4316 14.2188 22.7539 14.541 22.7539 14.9414V22.7344H15.8203V14.9414Z" fill="#01625C"/>
</svg>
