<svg xmlns="http://www.w3.org/2000/svg" width="9" height="10" viewBox="0 0 9 10">
    <path fill="#C4302B" fill-rule="nonzero" d="M1.105 0h.6l.412 1.542L2.498 0h.606L2.41 2.294v1.565h-.596V2.294L1.105 0zm2.748.989c-.467 0-.776.308-.776.764V3.15c0 .501.262.763.776.763.425 0 .76-.285.76-.763V1.753a.743.743 0 0 0-.76-.764zm.22 2.136c0 .155-.078.27-.22.27-.147 0-.232-.12-.232-.27V1.8c0-.155.072-.27.22-.27.163 0 .233.111.233.27v1.325zm1.971-2.112v2.16c-.064.081-.208.214-.311.214-.113 0-.14-.078-.14-.192V1.012h-.53v2.38c0 .28.086.508.37.508.16 0 .382-.083.611-.355v.314h.53V1.012h-.53zm.918 5.774c-.187 0-.225.13-.225.318v.274h.445v-.275c0-.183-.038-.317-.22-.317zm-1.96.016a.386.386 0 0 0-.104.083v1.69c.042.044.081.075.12.095.082.042.202.044.258-.028.029-.038.044-.1.044-.187v-1.4a.342.342 0 0 0-.054-.208c-.061-.08-.175-.09-.263-.045zM7.014 4.64c-1.085-.074-4.611-.074-5.694 0C.147 4.719.009 5.427 0 7.292c.009 1.86.146 2.573 1.32 2.653 1.083.073 4.609.073 5.694 0 1.172-.08 1.31-.79 1.32-2.653-.01-1.862-.146-2.573-1.32-2.653zM1.879 9.09H1.31V5.95H.723v-.534h1.743v.534h-.588V9.09zm2.019 0h-.504v-.299c-.093.11-.19.195-.29.252-.272.156-.645.152-.645-.398V6.38h.504V8.46c0 .109.026.182.134.182.098 0 .235-.126.296-.203V6.38h.505v2.711zm1.94-.561c0 .335-.125.596-.46.596a.576.576 0 0 1-.48-.243v.208H4.39V5.416h.509V6.6c.114-.14.268-.254.448-.254.37 0 .492.312.492.68V8.53zm1.863-.73h-.964v.511c0 .204.018.38.22.38.213 0 .226-.144.226-.38v-.188H7.7v.204c0 .522-.224.838-.755.838-.481 0-.728-.35-.728-.838V7.11c0-.47.311-.798.766-.798.484 0 .717.308.717.798v.69z"/>
</svg>
